<?xml version="1.0" encoding="UTF-8" standalone="no"?>
<!DOCTYPE svg PUBLIC "-//W3C//DTD SVG 1.1//EN" "http://www.w3.org/Graphics/SVG/1.1/DTD/svg11.dtd">
<svg width="100%" height="100%" viewBox="0 0 2048 2048" version="1.1" xmlns="http://www.w3.org/2000/svg" xmlns:xlink="http://www.w3.org/1999/xlink" xml:space="preserve" xmlns:serif="http://www.serif.com/" style="fill-rule:evenodd;clip-rule:evenodd;stroke-linejoin:round;stroke-miterlimit:2;">
    <rect id="Artboard1" x="0" y="0" width="2048" height="2048" style="fill:none;"/>
    <g id="Artboard11" serif:id="Artboard1">
        <g transform="matrix(1.13066,0,0,1.13066,241.663,286.877)">
            <circle cx="691.931" cy="651.942" r="879.388" style="fill:white;"/>
        </g>
        <g transform="matrix(3.88785,0,0,-3.88785,-393.344,2436.66)">
            <path d="M344.273,107.778C326.5,109.215 303.789,113.633 289.148,118.5C268.359,125.415 243.031,137.086 227.059,147.11C206.891,159.77 180.27,183.391 165.574,201.665C132.766,242.469 112.676,294.051 109.172,346.489C108.016,363.79 109.828,394.286 112.895,409.133C115.48,421.641 120.254,439.86 122.637,446.297C130.363,467.188 134.156,475.458 142.93,490.575C179.066,552.817 234.961,594.696 305.051,612.047C328.848,617.938 351.617,620.137 375.16,618.817C409.875,616.872 429.043,612.661 461.785,599.786C476.773,593.891 481.742,591.442 495.613,583.094C515.562,571.09 528.73,560.809 544.93,544.59C574.137,515.348 594.656,482.04 607.566,442.922C617.488,412.852 621.66,380.922 619.902,348.508C617.223,299.047 604.445,261.727 575.582,219.047C566.289,205.301 557.52,194.821 544.195,181.543C525.57,162.981 507.293,149.504 481.898,135.614C459.844,123.551 425.629,112.946 396.398,109.118C387.391,107.938 353.168,107.059 344.273,107.778ZM354.195,153.551C354.883,155.637 343.105,160.516 337.336,160.536C334.195,160.547 334.176,159.11 337.285,156.813C342.113,153.243 353.383,151.071 354.195,153.551ZM426.422,168.083C427.879,168.458 429.723,169.243 430.52,169.825C431.742,170.719 431.812,171.067 430.977,172.079C427.789,175.915 407.27,175.489 403.281,171.5C402.176,170.395 402.18,170.196 403.312,169.063C405.598,166.774 419.129,166.2 426.422,168.083ZM307.148,168.719C307.148,170.989 295.715,177.891 286.969,180.899C282.102,182.575 280.898,182.641 280.898,181.227C280.898,178.028 289.391,172.239 298.102,169.497C302.691,168.051 307.148,167.668 307.148,168.719ZM380.93,176.508C382.168,177.415 382.148,177.594 380.562,179.61C378.527,182.196 373.094,184.692 364.746,186.872C358.75,188.438 349.059,189.196 348.035,188.176C346.812,186.965 350.113,182.899 353.5,181.45C355.438,180.618 358.098,179.43 359.414,178.805C362.051,177.551 371.805,175.743 376.566,175.622C378.242,175.583 380.203,175.981 380.93,176.508ZM495.891,178.915C500.73,180.352 504.5,182.907 505.816,185.645C506.777,187.645 506.727,187.918 505.172,189.18C502.973,190.961 499.016,190.918 492.977,189.055C488.633,187.711 482.32,184.012 481.031,182.055C478.695,178.508 487.945,176.555 495.891,178.915ZM467.242,187.872C472.098,190.247 473.613,192.5 472.301,195.383C470.727,198.836 467.375,199.922 458.273,199.922C450.961,199.922 449.602,199.708 446.316,198.047C444.277,197.016 442.289,195.633 441.895,194.973C440.703,192.985 441.984,190.02 444.781,188.29C448.812,185.801 451.023,185.317 457.254,185.563C461.684,185.739 463.949,186.262 467.242,187.872ZM335.379,190.778C335.625,191.024 335.195,192.301 334.426,193.618C333.473,195.247 330.777,197.27 325.992,199.95C319.855,203.387 318.012,204.036 311.434,205.059C307.293,205.708 303.621,206.059 303.277,205.844C302.059,205.094 302.668,202.454 304.438,200.821C306.73,198.708 318.051,192.997 323.539,191.192C327.48,189.891 334.258,189.657 335.379,190.778ZM260.648,191.508C260.648,192.926 252.695,200.403 247.523,203.844C241.812,207.645 236.227,210.458 233.02,211.153C230.734,211.645 230.582,211.571 231.27,210.29C232.336,208.293 239.379,201.79 243.605,198.899C247.738,196.071 258.328,190.59 259.711,190.563C260.227,190.555 260.648,190.977 260.648,191.508ZM426.453,200.692C430.211,202.016 432.109,203.559 433.656,206.551C434.648,208.469 434.629,208.825 433.477,210.098C429.586,214.399 416.434,216.098 408.461,213.333C403.211,211.508 401.039,208.825 402.32,205.735C403.344,203.266 406.215,201.356 410.379,200.376C414.996,199.293 422.93,199.446 426.453,200.692ZM524.586,205.993C534.941,211.172 540.527,222.047 532.836,222.047C529.637,222.047 523.133,219.376 519.957,216.754C514.754,212.461 511.215,205.727 513.148,203.797C514.449,202.497 519.562,203.477 524.586,205.993ZM292.344,210.715C294.492,212.782 286.395,222.204 278.48,226.836C275.02,228.868 267.633,231.047 264.219,231.047C259.633,231.047 260.656,226.418 266.539,220.536C272.797,214.278 283.949,208.961 289.148,209.758C290.594,209.981 292.031,210.411 292.344,210.715ZM383.953,211.805C388.516,214.797 384.574,221.547 375.969,225.481C370.055,228.184 360.055,228.977 357.012,226.981C353.223,224.5 355.301,219.532 361.898,215.297C369.629,210.336 379.359,208.797 383.953,211.805ZM498.844,215.129C505.711,218.661 508.719,225.016 504.758,227.614C496.785,232.836 480.465,228.747 478.562,221.051C477.707,217.579 478.406,216.188 481.953,214.313C485.465,212.454 494.496,212.891 498.844,215.129ZM465.352,220.989C469.703,222.731 473.652,227.594 476.102,234.235C479.988,244.782 488.234,251.09 499.145,251.872C508.082,252.512 513.117,249.493 517.48,240.879L519.312,237.27L523.992,239.516C526.762,240.844 530.992,242.086 534.348,242.559C537.469,242.997 540.234,243.657 540.492,244.028C540.746,244.399 541.145,246.274 541.371,248.196C542.105,254.383 544.746,260.043 549.078,264.727C556.527,272.77 564.676,274.395 572.672,269.422C574.777,268.118 576.793,267.047 577.152,267.047C578.012,267.047 588.945,274.626 591.586,277.055C593.172,278.512 593.648,279.637 593.648,281.93C593.648,286.649 595.691,296.083 597.625,300.305C598.602,302.43 600.836,305.829 602.59,307.86C605.332,311.024 605.719,311.876 605.305,313.86C603.895,320.618 604.004,323.184 606.027,331.11C607.707,337.7 607.926,339.516 607.223,341.055C606.652,342.309 605.973,342.793 605.195,342.493C604.551,342.247 603.723,342.047 603.352,342.047C602.047,342.047 598.895,334.555 598,329.325C597.5,326.422 596.805,324.047 596.453,324.047C596.102,324.047 595.117,325.622 594.266,327.547C590.926,335.098 594.387,344.27 604.336,354.25C607.531,357.458 610.148,360.372 610.148,360.719C610.148,361.071 609.305,362.868 608.27,364.715C601.816,376.266 601.797,388.747 608.219,397.165C610.469,400.114 610.629,401.469 608.895,402.891C605.707,405.504 601.27,412.715 600.031,417.293C598.742,422.055 598.754,430.817 600.059,439.922C600.48,442.856 600.367,443.04 594.879,448.376C588.438,454.633 585.332,459.012 583.113,464.942C581.027,470.512 580.148,475.442 580.148,481.555C580.148,487.274 579.973,487.52 574.359,489.649C564.031,493.567 556.789,503.989 555.508,516.77C555.086,520.977 554.777,521.731 553.148,522.477C544.742,526.329 542.246,527.899 539.273,531.208C535.332,535.586 532.012,541.235 530.332,546.422C527.82,554.157 527.879,554.114 518.914,555.047C508.035,556.184 501.562,560.473 497.648,569.133L495.883,573.047L492.027,573.047C482.066,573.047 474.801,575.844 467.609,582.458C463.492,586.243 462.891,586.547 459.508,586.547C450.965,586.547 442.746,589.383 436.457,594.508L432.621,597.633L428.574,596.883C419.992,595.297 409.965,597.536 402.43,602.719C400.371,604.137 398.324,605.297 397.887,605.297C397.445,605.297 394.82,604.215 392.055,602.895C388.125,601.02 385.793,600.434 381.398,600.211C375.547,599.918 373.656,600.555 365.125,605.708C362.992,606.993 362.453,607.043 360.25,606.153C350.398,602.165 347.012,601.309 339.773,600.993C333.691,600.727 331.375,600.95 327.523,602.172L322.773,603.676L317.59,598.918C310.18,592.122 305.574,590.047 297.066,589.696C292.141,589.489 288.23,589.844 282.84,590.981C278.754,591.84 275.164,592.547 274.867,592.547C274.57,592.547 272.891,590.348 271.141,587.657C267.16,581.547 261.059,575.915 255.102,572.852C250.898,570.692 249.758,570.465 241.207,570.086L231.887,569.672L228.93,563.801C223.543,553.114 214.414,546.051 204.484,544.883C198.418,544.168 196.898,542.997 196.898,539.04C196.898,528.274 188.957,518.317 178.508,515.977C176.238,515.469 174.047,514.653 173.645,514.165C173.238,513.676 172.414,510.469 171.816,507.04C169.34,492.856 165.449,486.633 156.371,482.34C149.527,479.106 149.43,478.969 149.988,473.708C150.582,468.149 149.199,463.29 142.738,448.176C138.504,438.27 138.266,437.403 138.555,432.801C138.801,428.911 139.344,427.172 141.246,424.227C144.5,419.184 144.844,416.528 143.285,408.493L141.961,401.672L145.148,398.356C149.172,394.165 150.402,391.215 150.391,385.758C150.387,381.629 148.586,376.547 145.758,372.653C144.969,371.567 145.453,370.739 149.148,366.86C155.391,360.321 156.781,356.86 156.746,347.961L156.719,340.75L161.148,339.926C166.875,338.864 174.168,335.426 177.945,332.012C182.113,328.25 185.051,321.407 185.5,314.434L185.852,308.938L191.188,309.426C197.695,310.024 206.133,308.43 210.73,305.735C216.934,302.102 221.219,295.469 222.793,287.075C223.074,285.575 223.723,284.004 224.23,283.579C224.742,283.157 228.504,282.133 232.59,281.301C240.523,279.692 248.656,276.172 253.211,272.379C257.215,269.047 261.324,262.622 263.664,256.028C265.516,250.813 265.941,250.192 267.508,250.364C268.48,250.469 272.309,250.754 276.023,251C287.172,251.743 291.484,249.43 301.734,237.208C308.906,228.657 322.02,224.583 332.422,227.672C334.508,228.293 336.645,229.317 337.168,229.946C338.746,231.844 336.801,236.641 332.789,240.747C328.023,245.629 321.945,247.641 310.148,248.235C301.941,248.649 301.512,248.75 301.285,250.352C300.629,254.95 309.102,264.848 316.734,268.395C320.359,270.079 322.012,270.379 327.398,270.34C336.297,270.278 342.816,266.965 347.473,260.153C350.824,255.25 351.695,251.758 351.539,243.915L351.395,236.903L354.961,239.876C368.074,250.805 377.801,253.02 389.074,247.641C394.863,244.879 398.051,241.52 400.715,235.379C402.961,230.204 403.176,230.168 411.398,233.782C415.449,235.559 417.289,235.918 422.273,235.903C429.594,235.879 431.406,235.02 438.773,228.047C446.617,220.622 450.543,218.864 458.027,219.438C460.363,219.614 463.66,220.313 465.352,220.989ZM469.641,238.418C468.938,239.192 466.602,240.793 464.445,241.973C459.078,244.915 454.254,244.848 446.371,241.727L440.469,239.387L440.98,243.266C441.648,248.282 445.375,255.231 449.121,258.438C456.941,265.129 471.082,264.872 476.129,257.942C478.742,254.348 477.773,245.286 474.211,240.028C472.113,236.93 471.258,236.629 469.641,238.418ZM433.637,251.676C430.984,258.126 423.766,262.672 416.18,262.672C411.535,262.672 408.633,261.915 403.648,259.411C399.281,257.215 399.27,257.215 399.777,258.942C401.914,266.204 407.969,272.786 414.52,274.961C423.094,277.809 433.133,274.938 437.461,268.399C440.34,264.051 440.664,256.809 438.199,252.098C437.238,250.27 436.133,248.668 435.738,248.54C435.348,248.407 434.398,249.821 433.637,251.676ZM283.152,261.5C277.566,269.735 272.727,272.93 260.137,276.696C254.254,278.458 251.637,280.778 251.664,284.211C251.715,289.958 258.516,297.559 265.605,299.797C274.98,302.75 288.816,296.75 293.797,287.571C299.285,277.454 297.438,263.29 289.977,258.262C288.574,257.317 287.223,256.547 286.969,256.547C286.719,256.547 285,258.774 283.152,261.5ZM383.367,257.825C383.109,258.083 382.895,258.829 382.891,259.485C382.879,261.876 379.195,268.497 376.238,271.458C374.566,273.126 371.418,275.415 369.238,276.54C365.746,278.336 364.402,278.586 357.973,278.626C353.402,278.657 350.555,278.977 350.352,279.497C349.676,281.235 351.625,287.465 353.898,290.829C359.301,298.825 372.914,301.391 382.898,296.297C390.422,292.458 395.965,283.727 396,275.672C396.02,270.852 393.891,266.047 389.738,261.54C387.512,259.129 384.074,257.122 383.367,257.825ZM515.273,264.235C516.371,271.114 522.453,281.317 527.211,284.254C528.918,285.313 530.977,285.797 533.75,285.797C539.156,285.797 542.754,283.411 544.586,278.614C545.859,275.282 545.855,274.922 544.527,269.594C543.77,266.543 542.906,264.047 542.613,264.047C542.32,264.047 540.117,265.227 537.723,266.672C531.066,270.68 527.145,270.133 519.609,264.153C517.453,262.446 515.484,261.047 515.23,261.047C514.977,261.047 514.996,262.481 515.273,264.235ZM476.441,271.563C475.895,275.629 477.68,283.743 479.992,287.68C482.367,291.735 487.961,296.704 491.445,297.852C499.719,300.583 513.5,294.258 515.352,286.879C516.16,283.653 515.277,276.551 513.789,274.286L512.379,272.149L511.086,274.661C509.145,278.422 506.352,280.665 502.75,281.336C496.195,282.563 489.312,279.75 482.227,272.942C479.707,270.524 477.465,268.547 477.246,268.547C477.027,268.547 476.664,269.903 476.441,271.563ZM461.648,272.676C461.648,272.907 462.156,274.305 462.773,275.786C464.371,279.61 464.211,285.993 462.43,289.481C459.23,295.75 453.027,298.719 446.402,297.149C444.27,296.641 441.574,296.032 440.414,295.793L438.301,295.36L439.496,298.266C441.262,302.567 443.055,304.723 446.426,306.61C453.086,310.333 460.309,309.36 466.316,303.93C470.898,299.79 472.445,296.165 472.445,289.547C472.449,283.563 471.613,281.2 467.961,276.86C466.125,274.676 461.648,271.711 461.648,272.676ZM573.312,282.954C571.109,288.18 572.816,297.985 577.102,304.735C579.906,309.149 585.008,311.993 588.129,310.879C590.938,309.879 593.074,306.676 593.184,303.301C593.273,300.43 593.262,300.418 589.898,300.012C588.043,299.786 585.773,299.188 584.859,298.684C582.656,297.469 579.465,291.918 577.512,285.891C576.641,283.208 575.574,280.895 575.141,280.75C574.707,280.606 573.887,281.598 573.312,282.954ZM332.734,285.922C329.066,293.708 325.113,297.043 316.352,299.747C309.508,301.86 306.609,301.973 301.141,300.348C297.344,299.223 297.051,299.231 296.129,300.493C293.773,303.711 295.379,311.793 299.277,316.348C302.875,320.547 307.145,322.106 313.777,321.629C331.359,320.372 343.23,303.477 338.27,286.774C336.418,280.532 335.348,280.368 332.734,285.922ZM241.184,291.235C238.078,301.614 230.891,308.93 221.887,310.876C218.406,311.629 217.656,312.864 218.586,316.301C221.363,326.532 231.547,330.836 241.484,325.973C253.398,320.145 256.719,305.188 248.738,293.301C246.863,290.512 244.098,288.165 242.578,288.071C242.336,288.059 241.707,289.481 241.184,291.235ZM549.684,291.641C549.234,291.934 548.438,293.477 547.918,295.079C544.488,305.59 556.828,324.165 565.914,322.168C570.363,321.192 573.641,314.754 571.953,310.309L571.156,308.215L568.523,310.223C565.391,312.614 562.57,312.368 558.641,309.372C555.543,307.008 553.602,303.286 552.402,297.422C551.312,292.071 550.777,290.934 549.684,291.641ZM430.117,294.797C429.832,304.012 421.457,310.649 409.871,310.84C405.789,310.907 404.18,310.528 400.223,308.567L395.473,306.215L395.883,309.254C396.422,313.29 399.758,317.883 404.094,320.563C408.18,323.09 415.715,324.02 420.844,322.633C425.223,321.446 429.84,317.84 431.742,314.118C434.648,308.426 434.422,297.762 431.312,293.649C430.254,292.247 430.191,292.305 430.117,294.797ZM508.648,308.797C507.641,309.801 508.188,314.653 509.645,317.668C513.168,324.938 524.648,328.622 532.043,324.852C535.66,323.004 536.617,321.813 537.156,318.493C537.898,313.93 536.547,313.286 531.656,315.856C524.875,319.426 520.711,318.54 513.879,312.083C509.703,308.129 509.465,307.981 508.648,308.797ZM276.605,316.208C276.43,325.403 273.422,329.938 264.164,334.977C261.184,336.598 259.031,337.137 254.488,337.399C248.652,337.739 248.648,337.739 248.648,339.868C248.648,342.708 252.328,346.801 256.344,348.43C267.895,353.118 283.418,345.575 287.242,333.415C289.68,325.665 287.117,315.911 281.676,312.235C277.332,309.297 276.727,309.77 276.605,316.208ZM372.414,315.004C366.785,330.055 357.938,336.321 345.855,333.813C343.477,333.321 341.352,333.094 341.133,333.313C340.391,334.055 344.047,338.372 346.996,340.231C351.074,342.805 358.242,344.536 362.141,343.887C371.949,342.25 379.879,333.368 379.895,323.993C379.898,319.961 377.898,314.043 375.891,312.157L374.105,310.481L372.414,315.004ZM199.559,320.485C199.398,321 198.539,323.766 197.648,326.633C194.691,336.161 191.293,340.926 184.191,345.5C179.398,348.59 178.898,349.68 180.703,353.145C183.938,359.364 191.98,362.262 199.898,360.059C204.02,358.911 207.848,355.219 210.504,349.821C212.605,345.555 212.922,344.141 212.902,339.161C212.875,332.965 211.715,329.29 208.414,324.961C205.27,320.836 200.242,318.293 199.559,320.485ZM501.047,326.243C498.496,331.899 493.145,335.297 486.773,335.297C482.254,335.297 478.98,333.844 474.789,329.981C470.402,325.938 469.387,326.602 470.652,332.688C471.723,337.848 475.32,342.176 481.191,345.372C487.496,348.805 494.996,347.844 500.152,342.942C503.582,339.684 504.539,337.129 504.484,331.352C504.402,322.801 503.324,321.196 501.047,326.243ZM318.348,333.235C318.316,333.336 317.672,336.372 316.91,339.977C315.281,347.708 313.43,351.016 309.043,354.032C302.812,358.317 297.285,358.352 291.168,354.145C289.289,352.852 287.52,351.797 287.234,351.797C286.949,351.797 286.863,353.79 287.039,356.227C287.594,363.879 292.625,369.141 300.852,370.665C309.949,372.352 318.891,368.477 323.426,360.883C327.711,353.704 328.227,346.774 324.965,340.172C322.98,336.149 318.766,331.735 318.348,333.235ZM456.812,340.172C457.191,346.286 457.066,347.2 455.5,349.879C451.113,357.387 441.629,357.747 434.586,350.668C433.176,349.25 431.785,348.083 431.496,348.071C430.715,348.036 432.914,353.887 435.043,357.52C437.375,361.5 442.402,365.836 445.895,366.883C453.762,369.239 462.078,360.942 462.969,349.844C463.277,346.004 463.023,344.543 461.477,341.196C460.453,338.981 458.895,336.329 458.008,335.297L456.398,333.422L456.812,340.172ZM414.961,340.364C415.898,350.122 410.453,356.665 398.879,359.676C393.457,361.09 390.559,360.555 385.781,357.27C383.711,355.844 381.906,354.79 381.773,354.926C381.641,355.059 381.992,356.52 382.551,358.172C383.938,362.266 389.984,367.774 394.465,369.032C404.941,371.961 416.727,365.356 419.625,354.93C421.285,348.954 420.098,341.692 416.879,338.137C414.988,336.047 414.59,336.512 414.961,340.364ZM575.758,341.086C573.043,346.161 574.707,355.7 579.445,362.243C581.438,364.993 581.977,365.297 584.859,365.297C588.258,365.297 591.398,363.665 591.398,361.899C591.398,361.313 590.301,360.282 588.961,359.602C583.809,357 581.402,353.551 578.281,344.305C576.77,339.817 576.574,339.567 575.758,341.086ZM233.918,346.778C233.703,359.211 228.082,366.208 215.086,370.211C213.688,370.641 213.938,371.68 216.039,374.18C219.266,378.012 223.98,379.79 230.703,379.7C239.051,379.594 243.379,377.141 246.859,370.547C249.125,366.247 248.781,357.829 246.098,351.985C244.121,347.68 238.523,341.297 236.727,341.297C236.34,341.297 235.57,341.126 235.023,340.918C234.246,340.622 234,341.922 233.918,346.778ZM167.262,347.11C167.547,347.829 167.969,351.032 168.199,354.227C168.582,359.633 168.453,360.356 166.281,364.77C164.996,367.376 162.418,370.942 160.547,372.692C155.223,377.684 156.48,379.75 163.582,377.684C170.594,375.649 176.648,367.711 176.648,360.563C176.648,356.497 174.844,352.254 171.734,349.008C168.547,345.68 166.316,344.735 167.262,347.11ZM536.766,352.84C536.992,357.329 537.414,358.907 538.988,361.118C546.082,371.086 558.473,371.141 562.977,361.231C564.16,358.622 564.879,354.797 564.184,354.797C564.066,354.797 561.957,355.504 559.496,356.372C550.672,359.477 543.469,357.282 539.461,350.262C538.531,348.637 537.484,347.305 537.129,347.301C536.773,347.297 536.609,349.79 536.766,352.84ZM362.273,367.79C362.273,373.961 362.059,375.036 360.191,378.215C357.867,382.168 353.066,385.442 348.316,386.313C344.27,387.051 339.094,385.977 333.883,383.317L329.492,381.075L329.992,383.122C331.879,390.887 340.809,396.883 348.672,395.672C357.293,394.34 362.582,391.102 366.211,384.926C368,381.883 368.273,380.629 368.262,375.422C368.246,369.157 366.805,365 363.664,362.165C362.32,360.946 362.273,361.133 362.273,367.79ZM495.914,367.075C495.387,368.446 496.336,372.508 497.996,376.004C501.543,383.485 512.73,387.723 520.434,384.508C524.418,382.84 527.504,376.504 526.516,372.008L526.055,369.915L522.328,372.235C519.742,373.84 517.352,374.657 514.531,374.887C507.91,375.438 505.613,374.645 500.738,370.133C497.637,367.262 496.195,366.348 495.914,367.075ZM278.66,369.633C278.664,369.93 279.156,371.52 279.75,373.172C281.195,377.172 281.176,385.211 279.719,389.497C278.324,393.59 273.609,399.215 270.496,400.504C269.195,401.043 265.949,401.317 262.594,401.168C257.703,400.958 256.895,401.094 256.898,402.157C256.898,402.836 258.07,404.418 259.504,405.676C268.098,413.223 281.074,409.122 287.055,396.965C289.203,392.598 289.52,391.219 289.48,386.309C289.43,379.497 287.516,374.641 283.801,371.887C281.027,369.836 278.641,368.79 278.66,369.633ZM202.469,374.797C204.621,380.407 204.633,386.969 202.496,392.094C201.234,395.129 195.305,401.52 191.02,404.469C187.34,407 187.578,407.797 192.324,408.864C196.785,409.864 201.445,408.5 204.715,405.231C211.875,398.067 212.613,382.411 206.105,375.618C203.875,373.293 201.703,372.801 202.469,374.797ZM442.527,378.938C442,382.934 440.086,387.918 438.254,390.075C436.41,392.247 432.027,395.11 429.113,396.043C424.949,397.379 421.188,396.083 417.816,392.145L415.148,389.028L415.148,391.809C415.148,395.555 416.699,398.926 419.746,401.813C424.434,406.25 430.152,407 436.551,404.02C448.039,398.672 452.438,383.446 444.551,376.309C443.074,374.973 443.043,375.008 442.527,378.938ZM590.371,378.196C586.867,381.852 584.648,387.032 584.648,391.543C584.648,399.071 589.637,407.297 594.199,407.297L596.453,407.297L595.426,402.985C593.301,394.047 592.852,389.032 593.559,382.172C593.945,378.458 594.117,375.278 593.949,375.102C593.777,374.93 592.168,376.321 590.371,378.196ZM481.926,383.344C473.863,388.301 468.594,388.864 461.125,385.559L457.738,384.059L458.242,386.055C458.793,388.254 460.988,391.329 462.988,392.7C466.949,395.418 475.906,396.254 480.504,394.333C484.133,392.817 487.758,388.926 488.316,385.958C488.797,383.395 488.223,380.266 487.285,380.333C487.004,380.352 484.594,381.708 481.926,383.344ZM562.289,385.133C555.766,391.028 553.777,401.012 557.887,407.223C560.125,410.606 563.566,412.547 567.332,412.547C570.48,412.547 570.785,411.454 568.477,408.426C567.375,406.981 566.02,404.532 565.469,402.985C564.254,399.579 564.105,390.008 565.207,386.04C565.648,384.454 565.844,382.993 565.645,382.793C565.445,382.594 563.934,383.645 562.289,385.133ZM401.312,389.86C399.363,394.606 393.895,400.36 389.273,402.524C382.91,405.504 377.73,404.754 370.531,399.801L367.148,397.473L367.148,400C367.148,403.133 371.035,407.934 375.867,410.766C379.906,413.133 387.23,413.961 391.539,412.54C397.164,410.684 403.938,402.708 405.047,396.629C405.547,393.899 404.23,386.293 403.262,386.297C402.992,386.301 402.117,387.903 401.312,389.86ZM171.875,396.985C172.637,406.02 170.371,413.895 165.355,419.606L163.074,422.204L165.734,422.938C171.77,424.606 177.004,420.438 178.922,412.442C180.727,404.93 178.441,395.633 174.094,392.786C173.051,392.102 172.023,391.547 171.809,391.547C171.594,391.547 171.625,393.993 171.875,396.985ZM532.816,394.204C528.336,396.559 527.453,405.653 531.125,411.59C532.863,414.403 533.891,415.262 536.164,415.797C540.422,416.805 540.789,415.766 538.051,410.458C536.145,406.754 535.586,404.598 535.223,399.512L534.773,393.176L532.816,394.204ZM327.023,404.86C327.023,412.918 326.199,415.325 321.879,419.922C316.504,425.641 310.652,427.004 302.805,424.376C299.832,423.376 297.402,422.754 297.402,422.989C297.43,425.297 303.773,430.895 308.477,432.766C312.461,434.348 321.273,433.45 325.383,431.043C334.938,425.442 337.988,415.622 333.395,405.235C331.969,402.016 328.512,397.547 327.445,397.547C327.215,397.547 327.023,400.836 327.023,404.86ZM242.203,405.61C242.426,406.329 243.328,409.958 244.207,413.672C247.082,425.797 245.074,432.376 236.883,437.672C234.328,439.321 232.223,440.922 232.195,441.235C232.168,441.543 233.922,441.793 236.086,441.79C243.453,441.774 251.426,435.473 253.145,428.305C254.07,424.45 252.82,417.051 250.445,412.329C247.965,407.403 241.004,401.723 242.203,405.61ZM581.883,417.395C576.715,419.641 571.566,429.629 571.629,437.297C571.676,443.2 575.516,450.047 578.777,450.047C580.461,450.047 580.484,448.93 578.945,443.028C576.82,434.899 578.129,428.161 583.508,419.485C585.652,416.028 585.492,415.825 581.883,417.395ZM149.508,424.051C149.703,429.797 149.453,431.856 148.109,435.489C147.211,437.926 146.301,440.899 146.086,442.098C145.703,444.223 145.758,444.266 148.359,443.844C155.797,442.637 159.066,435.247 156.277,425.938C155.473,423.254 150.938,417.047 149.777,417.043C149.5,417.043 149.379,420.196 149.508,424.051ZM209.18,423.45C210.969,428.106 212.066,433.821 212.066,438.461C212.066,444.907 209.965,450.282 205.523,455.2C202.777,458.235 202.762,458.297 204.574,458.297C207.258,458.297 211.18,456.844 213.855,454.86C220.098,450.231 221.523,437.575 216.73,429.313C214.09,424.758 207.812,419.883 209.18,423.45ZM371.719,431.196C369.602,434.168 364.012,437.778 359.137,439.313C356.945,440.004 355.148,440.829 355.148,441.149C355.148,443.172 367.129,443.95 371.324,442.2C374.547,440.852 376.438,436.969 375.723,433.157C374.984,429.227 373.605,428.547 371.719,431.196ZM175.898,436.36C175.898,436.7 176.969,440 178.277,443.7C181.281,452.184 181.383,456.446 178.715,462.235C177.148,465.641 176.965,466.547 177.84,466.547C180.312,466.547 184.207,464.239 185.68,461.903C188.652,457.196 186.219,446.11 180.812,439.715C178.66,437.168 175.898,435.286 175.898,436.36ZM552.211,436.868C541.031,440.856 537.617,454.086 545.07,464.532L546.773,466.922L547.188,459.356C547.695,450.067 549.832,445.071 555.438,440.028C557.477,438.192 559.148,436.489 559.148,436.243C559.148,435.461 555.129,435.825 552.211,436.868ZM296.379,438.204C296.125,439.149 295.914,440.618 295.91,441.473C295.891,444.704 293.496,450.915 291.32,453.395C288.531,456.571 282.664,458.872 275.699,459.52C269.383,460.106 268.457,460.571 269.547,462.602C271.133,465.567 280.621,468.489 285.586,467.543C291.164,466.481 297.461,461.743 300.133,456.598C300.824,455.262 301.527,451.809 301.699,448.922C301.957,444.508 301.73,443.141 300.266,440.333C298.242,436.454 297.027,435.79 296.379,438.204ZM154.148,455.161C154.148,455.5 155.281,457.102 156.668,458.723C160.574,463.297 162.543,467.844 163.215,473.856C163.953,480.426 164.258,481.059 166.188,480.024C168.449,478.813 169.898,475.235 169.883,470.895C169.859,465.426 166.949,460.208 162.125,456.985C158.777,454.747 154.148,453.688 154.148,455.161ZM255.406,461.485C255.414,461.586 255.918,463.329 256.531,465.352C257.98,470.129 257.961,477.29 256.488,480.387C255.004,483.516 251.5,487.094 246.863,490.219L243.207,492.688L246.422,493.551C254.449,495.715 262.32,490.872 265.566,481.774C266.887,478.075 266.879,477.336 265.469,472.59C264.25,468.489 258.488,461.297 256.422,461.297C255.859,461.297 255.402,461.379 255.406,461.485ZM562.074,467.715C557.621,469.083 551.977,474.911 551.227,478.911C550.434,483.133 551.34,489.418 553.227,492.774C554.156,494.426 555.035,495.661 555.184,495.512C555.328,495.364 555.789,493.133 556.207,490.555C557.5,482.52 561.074,476.883 568.156,471.731C570.996,469.661 572.293,468.29 571.703,467.981C569.551,466.84 565.293,466.723 562.074,467.715ZM216.602,473.11C217.254,473.829 218.824,476.614 220.094,479.297C224.113,487.801 222.816,494.704 216.023,500.965C212.305,504.395 212.625,505.106 217.867,505.024C223.801,504.934 229.449,501.75 231.844,497.145C234.375,492.282 232.316,483.149 227.371,477.293C225.133,474.637 219.855,471.797 217.172,471.797C215.547,471.797 215.504,471.895 216.602,473.11ZM190.613,480.235C190.918,480.75 191.941,482.2 192.883,483.461C195.195,486.543 196.875,490.723 197.98,496.133L198.895,500.629L200.277,498.516C201.039,497.356 201.785,494.668 201.938,492.54C202.266,487.895 200.168,483.672 196.215,481.004C193.453,479.145 189.664,478.622 190.613,480.235ZM307.543,490.489C306.672,493.235 301.328,497.934 298.004,498.879C296.227,499.383 294.438,500.102 294.023,500.473C292.684,501.676 296.012,503.297 299.828,503.297C306.422,503.297 310.898,499.524 310.898,493.969C310.898,489.754 308.547,487.317 307.543,490.489ZM174.887,493.329C173.758,493.618 174.262,494.36 177.648,497.379C181.82,501.094 186.375,508.61 186.422,511.852C186.445,513.301 186.586,513.262 188.297,511.317C190.473,508.844 190.711,505.344 188.988,501.219C186.281,494.743 180.957,491.762 174.887,493.329ZM261.441,506.516C265.605,510.274 268.184,514.141 269.621,518.782L270.945,523.055L272.266,521.04C273.789,518.711 273.586,513.329 271.84,509.692C270.219,506.325 266.309,504.04 262.227,504.079L258.773,504.11L261.441,506.516ZM535.523,506.415C532.586,508.032 528.242,512.723 526.457,516.208C524.18,520.661 524.055,525.938 526.141,529.36C527.668,531.864 529.148,532.571 529.148,530.79C529.148,528.575 533.961,520.352 537.09,517.223C538.922,515.391 542.27,512.836 544.531,511.54C546.797,510.247 548.648,508.891 548.648,508.532C548.648,505.989 539.102,504.45 535.523,506.415ZM228.023,512.864C224.504,513.497 224.516,513.848 228.184,516.766C232.363,520.094 235.07,523.7 237.465,529.129L239.098,532.836L240.508,531.098C242.527,528.602 242.973,526.083 241.977,522.762C240.082,516.438 233.625,511.86 228.023,512.864ZM492.773,518.059C491.949,518.223 490.504,518.52 489.566,518.719C486.914,519.286 481.984,524.184 479.844,528.372C478.391,531.215 477.816,533.68 477.559,538.172L477.215,544.172L478.93,541.922C484.75,534.278 492.199,528.184 501.367,523.559L506.215,521.114L503.617,519.813C500.906,518.45 495.348,517.551 492.773,518.059ZM198.398,519.778C197.41,520.477 197.422,520.661 198.516,521.309C205.254,525.29 211.109,532.204 212.801,538.172C214.016,542.461 214.449,542.668 216.668,540.036C220.711,535.231 218.496,526.481 212.059,521.817C209.445,519.926 207.969,519.442 204.184,519.235C201.621,519.094 199.016,519.34 198.398,519.778ZM269.582,535.512C267.223,536.227 263.648,538.504 263.648,539.29C263.648,539.606 266.227,540.247 269.379,540.715C276.383,541.758 280.496,543.508 284.555,547.172L287.648,549.969L287.648,547.219C287.648,539 278.223,532.895 269.582,535.512ZM511.523,536.543C505.98,539.086 500.668,547.368 500.656,553.497L500.648,556.821L506.25,551.165C510.746,546.626 513.219,544.84 518.77,542.141L525.691,538.774L523.727,537.485C521.074,535.747 514.387,535.231 511.523,536.543ZM230.246,546.758C225.559,548.661 226.781,550.958 233.648,553.126C239.059,554.836 242.109,556.743 247.293,561.649C249.641,563.872 251.918,565.469 252.355,565.2C255.109,563.497 251.133,553.454 246.414,550.18C241.125,546.516 234.371,545.086 230.246,546.758ZM478.062,556.833C471.719,559.098 466.23,565.442 465.574,571.27C465.371,573.071 465.504,574.547 465.871,574.547C466.234,574.547 468.391,572.641 470.652,570.313C475.613,565.219 479.09,563.551 487.094,562.418C490.422,561.95 493.148,561.336 493.148,561.059C493.148,560.133 489.793,557.403 487.664,556.594C484.895,555.547 481.418,555.633 478.062,556.833ZM409.516,559.446C404.266,561.833 400.137,567.997 400.164,573.422C400.18,576.868 401.27,576.762 405.797,572.895C408.258,570.79 411.625,568.45 413.273,567.696C416.938,566.028 423.887,565.891 428.836,567.395C430.988,568.047 432.398,568.176 432.398,567.723C432.398,566.055 425.16,559.848 422.188,558.961C417.828,557.668 413.023,557.852 409.516,559.446ZM358.668,564.024C356.684,564.801 353.934,566.293 352.555,567.348C348.68,570.301 343.895,575.59 344.527,576.223C344.836,576.536 347.945,575.629 351.434,574.211C361.352,570.172 370.797,569.43 376.098,572.27C378.613,573.618 378.078,570.586 375.223,567.336C370.93,562.446 365.496,561.356 358.668,564.024ZM271.48,568.598C270.223,568.965 268.406,570.098 267.449,571.118L265.707,572.969L267.492,573.372C268.473,573.59 271.559,574.278 274.352,574.903C281.094,576.403 284.43,578.2 288.336,582.442C291.805,586.204 292.863,586.059 292.887,581.829C292.918,576.129 286.84,570.211 279.289,568.594C275.055,567.684 274.621,567.684 271.48,568.598ZM438.758,575.2C432.801,577.903 427.812,585.36 428.941,589.86C429.41,591.735 429.426,591.731 432.809,588.348C436.828,584.325 441.996,581.774 449.5,580.098C454.918,578.891 454.965,578.86 453.625,577.36C450.422,573.762 443.98,572.825 438.758,575.2ZM326.273,579.54C321.945,580.559 319.523,581.672 317.211,583.704C315.801,584.938 314.648,586.227 314.648,586.567C314.648,586.903 317.094,587.004 320.086,586.786C326.992,586.286 334.359,587.95 340.73,591.45C344.621,593.59 345.523,593.844 345.883,592.907C346.992,590.02 341.332,583.071 336.129,580.93C333.273,579.758 328.32,579.059 326.273,579.54ZM384.902,583.133C382.91,583.661 379.926,585.067 378.266,586.258C375.324,588.368 372.461,592.11 373.211,592.86C373.418,593.067 376.203,592.407 379.398,591.391C385.973,589.301 390.988,589.106 397.523,590.688C400,591.282 402.277,591.778 402.586,591.786C403.656,591.805 403.141,589.739 401.578,587.75C398.215,583.477 391.066,581.497 384.902,583.133ZM207.398,228.45C207.398,232.395 197.602,244.172 191.203,247.922C188.031,249.782 184.898,250.391 184.898,249.149C184.898,246.641 196.98,233.415 202.84,229.508C206.605,226.997 207.398,226.813 207.398,228.45ZM558.664,235.079C563.562,237.126 571.148,245.809 571.148,249.376C571.148,250.102 570,251.844 568.598,253.247C565.836,256.008 563.375,256.442 558.348,255.043C553.09,253.583 544.926,244.211 544.906,239.614C544.898,238.047 547.312,235.336 549.398,234.575C551.531,233.797 556.203,234.047 558.664,235.079ZM241.898,238.571C241.898,244.293 233.207,255.231 225.852,258.77C223.828,259.743 220.539,260.696 218.539,260.887C215.086,261.219 214.898,261.141 214.898,259.415C214.898,254.926 224.531,244.54 233.727,239.11C239.746,235.555 241.898,235.411 241.898,238.571ZM171.938,268.594C171.305,273.317 167.734,279.563 162.688,284.79C155.188,292.551 153.324,290.364 158.578,279.965C162.48,272.239 165.422,268.34 168.488,266.829C172.109,265.047 172.395,265.192 171.938,268.594ZM206.188,270.985C205.438,275.997 203.691,279.075 198.809,283.961C192.277,290.504 183.383,293.848 183.406,289.758C183.422,287.157 186.961,280.868 190.73,276.743C194.668,272.438 201.984,267.852 204.969,267.817C206.543,267.797 206.633,268.028 206.188,270.985ZM171.391,306.985C171.375,310.09 167.883,316.231 163.895,320.157C159.727,324.262 157.148,325.161 157.148,322.512C157.148,320.895 163.516,310.86 166.766,307.36C169.137,304.801 171.402,304.618 171.391,306.985ZM140.434,318.11C140.203,319.825 138.828,322.977 137.309,325.266C133.438,331.098 132.398,329.825 134.734,322.11C135.348,320.071 139.426,315.047 140.461,315.047C140.672,315.047 140.66,316.426 140.438,318.11L140.434,318.11ZM146.355,343.223C147.641,348.352 144.047,357.77 139.473,361.262C135.629,364.192 135.121,363.75 135.613,357.899C136.102,352.067 138.289,346.77 141.562,343.5C144.273,340.786 145.723,340.704 146.355,343.223ZM142.195,380.809C143.797,385.665 141.504,392.778 137.559,395.196C136.09,396.098 135.762,396.059 134.891,394.868C132.543,391.657 134.23,382.063 137.805,378.254C139.719,376.215 140.906,376.907 142.195,380.809ZM136.441,408.813C137.957,412.594 137.977,415.739 136.504,418.583C134.98,421.528 134.293,421.376 132.855,417.782C131.328,413.961 131.312,409.614 132.816,407.461C134.449,405.129 135.059,405.36 136.441,408.813Z" style="fill:rgb(175,0,255);fill-rule:nonzero;"/>
        </g>
    </g>
</svg>
